<svg width="29" height="28" viewBox="0 0 29 28" fill="none" xmlns="http://www.w3.org/2000/svg">
<path d="M26.0936 0H3.11231C1.70152 0 0.558838 1.11277 0.558838 2.48663V24.8663C0.558838 26.2402 1.70152 27.3529 3.11231 27.3529H15.8797V16.1631H12.0495V12.4332H15.8797V10.4302C15.8797 6.63806 17.7769 4.97326 21.0135 4.97326C22.5634 4.97326 23.3831 5.08516 23.7712 5.13614V8.70321H21.5637C20.19 8.70321 19.7099 9.40941 19.7099 10.8392V12.4332H23.7367L23.1903 16.1631H19.7099V27.3529H26.0936C27.5044 27.3529 28.6471 26.2402 28.6471 24.8663V2.48663C28.6471 1.11277 27.5031 0 26.0936 0Z" fill="white"/>
</svg>
