<svg width="31" height="28" viewBox="0 0 31 28" fill="none" xmlns="http://www.w3.org/2000/svg">
<path d="M30.951 3.23772C29.8483 3.78791 28.6637 4.15815 27.4204 4.32515C28.6902 3.47074 29.6639 2.11791 30.1225 0.504882C28.9357 1.29586 27.6197 1.87065 26.2185 2.18135C25.0974 0.83888 23.5003 0 21.7327 0C18.338 0 15.5863 3.09273 15.5863 6.90523C15.5863 7.44636 15.6416 7.97454 15.7454 8.47813C10.6372 8.19074 6.10872 5.44107 3.07589 1.2622C2.54814 2.28232 2.24508 3.46815 2.24508 4.73553C2.24508 7.13048 3.32939 9.24452 4.97832 10.4821C3.97122 10.4459 3.02288 10.1352 2.19438 9.61865C2.19438 9.64842 2.19438 9.67561 2.19438 9.70538C2.19438 13.0518 4.3123 15.8429 7.12504 16.476C6.60997 16.6339 6.06609 16.7181 5.50492 16.7181C5.10968 16.7181 4.72366 16.674 4.34917 16.5951C5.13158 19.3383 7.40159 21.3358 10.091 21.3915C7.98811 23.244 5.33784 24.3482 2.4571 24.3482C1.96162 24.3482 1.47189 24.3159 0.990234 24.2512C3.7108 26.2098 6.94068 27.3529 10.4125 27.3529C21.7188 27.3529 27.8997 16.8307 27.8997 7.70527C27.8997 7.40623 27.894 7.10848 27.8825 6.81202C29.0843 5.83721 30.1271 4.62161 30.951 3.23772Z" fill="white"/>
</svg>
